<svg width="24" height="24" viewBox="0 0 24 24" fill="none" xmlns="http://www.w3.org/2000/svg">
<path fill-rule="evenodd" clip-rule="evenodd" d="M19 24H5C3.896 24 3 23.104 3 22V6H21V22C21 23.104 20.104 24 19 24ZM10 10C10 9.448 9.552 9 9 9C8.448 9 8 9.448 8 10V19C8 19.552 8.448 20 9 20C9.552 20 10 19.552 10 19V10ZM16 10C16 9.448 15.552 9 15 9C14.448 9 14 9.448 14 10V19C14 19.552 14.448 20 15 20C15.552 20 16 19.552 16 19V10ZM22 5H2V3H8V1.5C8 0.673 8.673 0 9.5 0H14.5C15.325 0 16 0.671 16 1.5V3H22V5ZM10 3H14V2H10V3Z" fill="#BBBDD0"/>
</svg>
